# xmcd CD database file
#
# Track frame offsets:
#	150
#	28020
#	50577
#	69327
#	89240
#	103825
#	126250
#	153695
#	173335
#	192325
#	211947
#	229352
#	250717
#	269490
#	293147
#	309870
#	324572
#
# Disc length: 4609 seconds
#
# Revision: 0
# Processed by: cddbd v1.5PL3 Copyright (c) Steve Scherf et al.
# Submitted via: CDex 1.51
#
DISCID=f911ff11
DTITLE=Ginuwine - The Life
DYEAR=1900
DGENRE=Soul
TTITLE0=Why Not Me
TTITLE1=There It Is [Interlude]
TTITLE2=2 Way
TTITLE3=Differences
TTITLE4=So Fine
TTITLE5=Tribute To A Woman
TTITLE6=Why Did You Go [Interlude]
TTITLE7=How Deep Is Your Love
TTITLE8=That's How I Get Down [Feat. Ludacris]
TTITLE9=Show After The Show
TTITLE10=Role Play
TTITLE11=Open Arms
TTITLE12=Superhuman
TTITLE13=Tow Reasons I Cry
TTITLE14=Just Because
TTITLE15=Give It Up [Bonus track for Japan only]
TTITLE16=Fix It [Bonus track for Japan only]
EXTD=
EXTT0=
EXTT1=
EXTT2=
EXTT3=
EXTT4=
EXTT5=
EXTT6=
EXTT7=
EXTT8=
EXTT9=
EXTT10=
EXTT11=
EXTT12=
EXTT13=
EXTT14=
EXTT15=
EXTT16=
PLAYORDER=
